<?xml version="1.0" standalone="no"?><!DOCTYPE svg PUBLIC "-//W3C//DTD SVG 1.1//EN" "http://www.w3.org/Graphics/SVG/1.1/DTD/svg11.dtd"><svg t="1754571199450" class="icon" viewBox="0 0 1024 1024" version="1.1" xmlns="http://www.w3.org/2000/svg" p-id="15411" width="256" height="256" xmlns:xlink="http://www.w3.org/1999/xlink"><path d="M147.91111111 329.95555555h109.22666667v72.81777778H147.91111111zM147.91111111 475.59111111h109.22666667v72.81777778H147.91111111zM147.91111111 621.22666667h109.22666667v72.81777778H147.91111111zM766.86222222 329.95555555h109.22666667v72.81777778h-109.22666667zM766.86222222 475.59111111h109.22666667v72.81777778h-109.22666667zM766.86222222 621.22666667h109.22666667v72.81777778h-109.22666667z" p-id="15412" fill="#1296db"></path><path d="M329.95555555 690.00305778V803.27111111H75.09333333V220.72888889h254.86222222v113.23164444a256.06371555 256.06371555 0 0 1 72.81777778-51.88266666V147.91111111H2.27555555v728.17777778h400.49777778v-134.20316444a255.33553778 255.33553778 0 0 1-72.81777778-51.88266667z" p-id="15413" fill="#1296db"></path><path d="M694.04444445 512a182.04444445 182.04444445 0 1 0-218.45333334 178.36714667V876.08888889h72.81777778v-185.75815111A182.04444445 182.04444445 0 0 0 694.04444445 512z m-182.04444445 109.22666667c-60.22030222 0-109.22666667-49.00636445-109.22666667-109.22666667s49.00636445-109.22666667 109.22666667-109.22666667 109.22666667 49.00636445 109.22666667 109.22666667-49.00636445 109.22666667-109.22666667 109.22666667z" p-id="15414" fill="#1296db"></path><path d="M621.22666667 147.91111111v134.16675556a256.06371555 256.06371555 0 0 1 72.81777778 51.88266666V220.72888889h254.86222222v582.54222222h-254.86222222v-113.26805333a256.17294222 256.17294222 0 0 1-72.81777778 51.91907555V876.08888889h400.49777778V147.91111111H621.22666667z" p-id="15415" fill="#1296db"></path></svg>